G04 EAGLE Gerber RS-274X export*
G75*
%MOMM*%
%FSLAX34Y34*%
%LPD*%
%INTop Copper*%
%IPPOS*%
%AMOC8*
5,1,8,0,0,1.08239X$1,22.5*%
G01*
%ADD10P,1.429621X8X292.500000*%
%ADD11C,1.676400*%
%ADD12C,1.320800*%
%ADD13C,1.308000*%
%ADD14C,4.016000*%
%ADD15C,1.508000*%
%ADD16C,1.981200*%
%ADD17P,1.429621X8X112.500000*%
%ADD18P,1.429621X8X202.500000*%
%ADD19R,1.308000X1.308000*%
%ADD20R,1.600000X1.600000*%
%ADD21C,1.600000*%
%ADD22P,2.061953X8X112.500000*%
%ADD23C,1.320800*%
%ADD24C,4.500000*%


D10*
X652960Y608844D03*
X672010Y621544D03*
X652960Y634244D03*
D11*
X791002Y773944D03*
X892602Y773944D03*
D12*
X603877Y779257D02*
X590669Y779257D01*
X590669Y753857D02*
X603877Y753857D01*
X680077Y753857D02*
X693285Y753857D01*
X693285Y779257D02*
X680077Y779257D01*
D10*
X602160Y685044D03*
X602160Y558044D03*
D13*
X196470Y381979D02*
X183390Y381979D01*
X183390Y407379D02*
X196470Y407379D01*
X196470Y432779D02*
X183390Y432779D01*
X183390Y458179D02*
X196470Y458179D01*
X196470Y483579D02*
X183390Y483579D01*
X183390Y508979D02*
X196470Y508979D01*
X196470Y534379D02*
X183390Y534379D01*
X183390Y559779D02*
X196470Y559779D01*
X196470Y585179D02*
X183390Y585179D01*
X183390Y610579D02*
X196470Y610579D01*
X196470Y635979D02*
X183390Y635979D01*
X183390Y661379D02*
X196470Y661379D01*
X196470Y686779D02*
X183390Y686779D01*
X183390Y712179D02*
X196470Y712179D01*
X196470Y737579D02*
X183390Y737579D01*
X411990Y381979D02*
X425070Y381979D01*
X425070Y407379D02*
X411990Y407379D01*
X411990Y432779D02*
X425070Y432779D01*
X425070Y458179D02*
X411990Y458179D01*
X411990Y483579D02*
X425070Y483579D01*
X425070Y508979D02*
X411990Y508979D01*
X411990Y534379D02*
X425070Y534379D01*
X425070Y559779D02*
X411990Y559779D01*
X411990Y585179D02*
X425070Y585179D01*
X425070Y610579D02*
X411990Y610579D01*
X411990Y635979D02*
X425070Y635979D01*
X425070Y661379D02*
X411990Y661379D01*
X411990Y686779D02*
X425070Y686779D01*
X425070Y712179D02*
X411990Y712179D01*
X411990Y737579D02*
X425070Y737579D01*
D14*
X202630Y343879D03*
X405830Y343879D03*
X405830Y775679D03*
X202630Y775679D03*
D15*
X340693Y911086D02*
X340693Y926166D01*
X315293Y926166D02*
X315293Y911086D01*
X289893Y911086D02*
X289893Y926166D01*
X264493Y926166D02*
X264493Y911086D01*
D16*
X774228Y95208D02*
X774228Y75396D01*
X723936Y75396D02*
X723936Y95208D01*
X484872Y923431D02*
X484872Y943243D01*
X535164Y943243D02*
X535164Y923431D01*
X659862Y924207D02*
X659862Y944019D01*
X710154Y944019D02*
X710154Y924207D01*
X898950Y95038D02*
X898950Y75226D01*
X848658Y75226D02*
X848658Y95038D01*
D17*
X557301Y557001D03*
X557301Y684001D03*
D18*
X517090Y510050D03*
X491690Y510050D03*
D16*
X841802Y703292D02*
X841802Y723104D01*
X782112Y702784D02*
X782112Y682972D01*
X901492Y682972D02*
X901492Y702784D01*
X901492Y580864D02*
X901492Y561052D01*
X782112Y561052D02*
X782112Y580864D01*
D19*
X477856Y200803D03*
X477856Y141803D03*
X141856Y80803D03*
X141856Y260803D03*
D20*
X619442Y133003D03*
D21*
X629442Y208003D03*
D22*
X549995Y132403D03*
X549995Y208603D03*
D10*
X69510Y157722D03*
D23*
X69510Y178042D03*
D14*
X38100Y965200D03*
X965200Y965200D03*
X965200Y38100D03*
X38100Y38100D03*
D24*
X700000Y535999D03*
X700000Y250753D03*
M02*
