M48
;GenerationSoftware,Autodesk,EAGLE,9.6.2*%
;CreationDate,2022-08-26T17:40:26Z*%
FMAT,2
ICI,OFF
METRIC,TZ,000.000
T9C0.800
T8C0.813
T7C0.914
T6C1.000
T5C1.050
T4C1.118
T3C1.321
T2C2.600
T1C3.000
%
G90
M71
T1
X3810Y96520
X96520Y96520
X96520Y3810
X3810Y3810
X20263Y34388
X40583Y77568
X20263Y34388
X20263Y77568
X40583Y77568
X40583Y34388
X20263Y77568
X40583Y34388
T2
X70000Y53600
X70000Y25075
T3
X78211Y57096
X77423Y8530
X90149Y57096
X90149Y69288
X78211Y69288
X84180Y71320
X84866Y8513
X89895Y8513
X71015Y93411
X65986Y93411
X53516Y93334
X48487Y93334
X72394Y8530
T4
X79100Y77394
X89260Y77394
T5
X61944Y13300
X62944Y20800
T6
X26449Y91863
X28989Y91863
X31529Y91863
X34069Y91863
T7
X55000Y13240
X55000Y20860
T8
X60388Y77926
X60388Y75386
X68008Y75386
X68008Y77926
X60216Y68504
X60216Y55804
X65296Y60884
X55730Y55700
X55730Y68400
X51709Y51005
X49169Y51005
X67201Y62154
X65296Y63424
X6951Y15772
X6951Y17804
T9
X41853Y50898
X41853Y55978
X41853Y48358
X41853Y45818
X41853Y43278
X41853Y40738
X41853Y38198
X18993Y73758
X18993Y71218
X18993Y66138
X18993Y63598
X18993Y61058
X18993Y58518
X18993Y55978
X18993Y53438
X41853Y58518
X41853Y61058
X41853Y63598
X41853Y66138
X18993Y50898
X18993Y48358
X18993Y45818
X18993Y43278
X18993Y68678
X47786Y20080
X47786Y14180
X14186Y8080
X14186Y26080
X18993Y40738
X18993Y38198
X41853Y68678
X41853Y71218
X41853Y73758
X41853Y53438
M30